<?xml version="1.0" encoding="utf-8"?>
<!-- Generator: Adobe Illustrator 13.0.0, SVG Export Plug-In . SVG Version: 6.00 Build 14948)  -->
<!DOCTYPE svg PUBLIC "-//W3C//DTD SVG 1.1//EN" "http://www.w3.org/Graphics/SVG/1.1/DTD/svg11.dtd">
<svg version="1.1" id="wappen" xmlns="http://www.w3.org/2000/svg" xmlns:xlink="http://www.w3.org/1999/xlink" x="0px" y="0px"
	 width="592.078px" height="716.579px" viewBox="0 0 592.078 716.579" enable-background="new 0 0 592.078 716.579"
	 xml:space="preserve">
<path fill="#FCD900" stroke="#000000" stroke-width="4" d="M297.494,714.579"/>
<path fill="#FCD900" stroke="#000000" stroke-width="4" d="M294.584,714.579c-11.777-5.963-91.098-46.308-154.506-83.245
	C-5.922,538.667,2.078,378,2.078,378V2H590v376c0,0,8,160.668-138,253.334c-63.408,36.938-142.729,77.282-154.506,83.245H294.584"/>
<path fill="#E71B1E" stroke="#000000" stroke-width="2" d="M241.245,411.5c0,0-28.667,30.666-31.167,34.666
	c35.25,9.5,24,26,22.25,30.5c-1.5-13.5-14.75-13-14.75-13l-19.75,0.5c0,0,0,12.75-0.25,21.25c1.25,12.5,9,12.75,14,14
	c-28.75,16.25-31-21.75-32.25-26.5c-19.25,2.25-12.5,19.5-12.5,23.25c-24-12.75-11.5-23.25-9.5-26.25
	c5.25-8.75,18.25-15.75,18.25-15.75c-20.25-10.75-24.75,1.75-25,1.75c0.75-16,9-17.5,13.25-18.75c8.5-2,29,6.5,28.75,6
	c14.5-15.25,28.167-38.5,28.167-38.5"/>
<path fill="#E71B1E" stroke="#000000" stroke-width="2" d="M350.833,411.5c0,0,28.667,30.666,31.167,34.666
	c-35.25,9.5-24,26-22.25,30.5c1.5-13.5,14.75-13,14.75-13l19.75,0.5c0,0,0,12.75,0.25,21.25c-1.25,12.5-9,12.75-14,14
	c28.75,16.25,31-21.75,32.25-26.5c19.25,2.25,12.5,19.5,12.5,23.25c24-12.75,11.5-23.25,9.5-26.25
	c-5.25-8.75-18.25-15.75-18.25-15.75c20.25-10.75,24.75,1.75,25,1.75c-0.75-16-9-17.5-13.25-18.75c-8.5-2-29,6.5-28.75,6
	c-14.5-15.25-28.167-38.5-28.167-38.5"/>
<path d="M476.014,194.667c-0.005,0-0.009,0-0.014,0C475.991,194.658,475.998,194.659,476.014,194.667
	c68.488,0.497,82.486-20.5,81.486-22.5c-26.5,9.5-82,8-81.5,7.5c89.5-14.5,85-54,84.5-54.5c-37.5,21.5-108.834,9.833-118.167,9.5
	c-19.666-2.333-21.333,1.667-26.333,7c-16,15.667,9,31.667,9,31.667C426.333,195,415.334,205,410.666,209
	c-35.333,29-52.332-5.333-52.332-5.333C342.667,169,360.666,122,360.666,122c0.334-1.667,1.168-3.667,1.834-3.833
	c2.834-1.333,25.334,0.167,48.5,3.667c14.333,0.667,12.333-9.667,11.833-10.667c-4.666,5.5-21.083,3.5-21.083,3.5
	c-6.5-1.5-35.75-2.5-35.75-2.5c5.625-10.875,9.855-16.057,9.5-17c-3.625-9.625-8-20-33.75-12s-30.813,4.125-30.813,4.125
	s-1.73,1.183-1.438,1.625c19.25,29-5.5,47.75-5.5,47.75s0.406,1.994,0.5,2c3.594,0.25,9-2,6.5,7s-8.5,13.5-8.5,13.5l2,3
	c5,1.5,4,8.5,3,13.5s-10,25-10,25s-0.722,0.64-1.461,0.606c-0.739,0.034-1.461-0.606-1.461-0.606s-9-20-10-25s-2-12,3-13.5l2-3
	c0,0-6-4.5-8.5-13.5s2.906-6.75,6.5-7c0.094-0.006,0.5-2,0.5-2s-24.75-18.75-5.5-47.75c0.293-0.442-1.438-1.625-1.438-1.625
	s-5.063,3.875-30.813-4.125s-30.125,2.375-33.75,12c-0.355,0.943,3.875,6.125,9.5,17c0,0-29.25,1-35.75,2.5c0,0-16.417,2-21.083-3.5
	c-0.5,1-2.5,11.333,11.833,10.667c23.167-3.5,45.667-5,48.5-3.667c0.667,0.167,1.5,2.167,1.833,3.833c0,0,18,47,2.333,81.667
	c0,0-17,34.333-52.333,5.333c-4.667-4-15.667-14-14.333-35.667c0,0,25-16,9-31.667c-5-5.333-6.667-9.333-26.333-7
	c-9.333,0.333-80.667,12-118.167-9.5c-0.5,0.5-5,40,84.5,54.5c0.5,0.5-55,2-81.5-7.5c-1,2,12.998,22.997,81.486,22.5
	c0.016-0.007,0.022-0.009,0.014,0c-0.005,0-0.009,0-0.014,0c-0.867,0.404-38.781,24.964-82.486,23
	c1,0.5,10.996,47.477,100.938,9.526c0.041-0.035,0.062-0.046,0.062-0.026c-0.021,0.009-0.041,0.017-0.062,0.026
	c-0.986,0.84-14.77,17.479-83.395,41.958c1.23-0.153,24.859,9.552,79.457-18.484c0.5,0.5-29,42.5-87,56.5c2,1,33.5,42.5,113.5-30
	c1,1-36.5,59.5-63.5,83c1,0.5,18.5,7.5,70.5-62c0,1.5-33,104.5-77.5,128.5c0,0.5,53,28,96.5-78.5c6.5-15.5,17.5-41.5,25.5-50.5
	c0,0.5,2.5,61.5-31.5,107.5c1,1.5,22,2.5,46.5-74.5c0.5,1.5,5,36,6,48.5c0,1-13.5,22-34.5,35.5c0,0,30-1.5,33.5-1
	c0,0.497,13.347,15.333,14.477,24.349c0.288-0.075,1.856,0.484,1.856,0.484s7.667-17.834,8.5-20s7.833-15.666,13.333-21.333
	c0.333-0.333-1.334,92.166-50.667,155.5c0,0.667,42,8.001,64-70.666c0.667,0,11.334,39.999-7.333,58.666
	c-0.667,0.667-0.334,3.667,10.5,10.667c3,1.5,10.167,4.833,12,9.833c0.065,0.033,0.364,0.063,0.794,0.089
	c0.43-0.026,0.729-0.056,0.795-0.089c1.833-5,9-8.333,12-9.833c10.833-7,11.166-10,10.499-10.667C300.666,522,311.333,482,312,482
	c22,78.667,64,71.333,64,70.666c-49.333-63.334-51-155.833-50.667-155.5c5.5,5.667,12.5,19.167,13.333,21.333
	c0.834,2.166,8.5,20,8.5,20s1.57-0.56,1.857-0.484c1.13-9.016,14.477-23.852,14.477-24.349c3.5-0.5,33.5,1,33.5,1
	c-21-13.5-34.5-34.5-34.5-35.5c1-12.5,5.5-47,6-48.5c24.5,77,45.5,76,46.5,74.5c-34-46-31.5-107-31.5-107.5c8,9,19,35,25.5,50.5
	c43.5,106.5,96.5,79,96.5,78.5c-44.5-24-77.5-127-77.5-128.5c52,69.5,69.5,62.5,70.5,62c-27-23.5-64.5-82-63.5-83
	c80,72.5,111.5,31,113.5,30c-58-14-87.5-56-87-56.5c54.598,28.037,78.227,18.332,79.457,18.484
	c-68.625-24.479-82.408-41.119-83.395-41.958c-0.021-0.009-0.041-0.017-0.063-0.026c0-0.02,0.021-0.009,0.063,0.026
	c89.941,37.951,99.938-9.026,100.938-9.526C514.795,219.631,476.881,195.071,476.014,194.667z"/>
<path fill="#E71B1E" stroke="#000000" stroke-width="2" d="M219.078,88.792c0,0-15-0.25-19.625,0.75
	c-1.75,0.25-10,0.625-11.125,10.5c0,2.25-0.25,5.5-0.25,5.5s17.625-2.75,35.75,2.625"/>
<path fill="#E71B1E" stroke="#000000" stroke-width="2" d="M235.328,134.542c0,0-27.875,1.25-40.625-3.625l0.25-1.5
	c0,0,23.25,1.5,36.75-5.875"/>
<path fill="#FFFFFF" stroke="#000000" stroke-width="2" d="M238.912,98.833c0,0-0.917,6,6.25,5.333
	c1.917-0.75,4.583-2.166,5.75-5.083c0.083,0.167,6.25-0.334,10.75,3.333c0.25-0.083-5.834,7.5-14.667,8
	c-2.917-0.083-8.416-0.75-14.833-9.083C232.078,101.083,233.412,94.5,238.912,98.833z"/>
<line fill="none" stroke="#000000" stroke-width="2" x1="235.578" y1="299.167" x2="354.078" y2="299"/>
<path fill="#E71B1E" stroke="#000000" stroke-width="2" d="M373,88.792c0,0,15-0.25,19.625,0.75c1.75,0.25,10,0.625,11.125,10.5
	c0,2.25,0.25,5.5,0.25,5.5s-17.625-2.75-35.75,2.625"/>
<path fill="#E71B1E" stroke="#000000" stroke-width="2" d="M356.75,134.542c0,0,27.875,1.25,40.625-3.625l-0.25-1.5
	c0,0-23.25,1.5-36.75-5.875"/>
<path fill="#FFFFFF" stroke="#000000" stroke-width="2" d="M353.166,98.833c0,0,0.917,6-6.25,5.333
	c-1.916-0.75-4.583-2.166-5.75-5.083c-0.082,0.167-6.25-0.334-10.75,3.333c-0.25-0.083,5.834,7.5,14.668,8
	c2.916-0.083,8.416-0.75,14.832-9.083C360,101.083,358.666,94.5,353.166,98.833z"/>
<path fill="#E71B1E" stroke="#000000" stroke-width="2" d="M235.424,299.083l-0.013,1.25c0,0-5.334,70,59.333,75
	c0.426,0.007,0.862,0.013,1.294,0.02c0.433-0.007,0.869-0.013,1.295-0.02c64.666-5,59.332-75,59.332-75l-0.013-1.25"/>
<polyline fill="#FFFFFF" stroke="#000000" stroke-width="2" points="356.653,299.083 356,235.667 236.078,235.667 235.424,299.083 
	"/>
</svg>
