<?xml version="1.0" encoding="UTF-8"?>
<svg viewBox="0 0 208 256" xmlns="http://www.w3.org/2000/svg" xmlns:xlink="http://www.w3.org/1999/xlink">
<clipPath id="a">
<path id="b" d="m217.6 259.4v94.2c0 35.97-31.56 64.04-63.96 64.04s-63.95-28.08-63.95-64.04v-94.2z"/>
</clipPath>
<clipPath id="c">
<rect id="d" height="44.5" width="27.8" x="139.9" y="303.9"/>
</clipPath>
<g clip-path="url(#a)" transform="matrix(1.589 0 0 1.589 -140.2 -410.2)">
<rect fill="#fff" height="167.4" width="139.1" x="83.4" y="253.6"/>
<g stroke="#000" stroke-width=".6" transform="translate(-.1)">
<path d="m138.9 299.4l15.2-32.68 14.66 32.68z" fill="#2f71c7" stroke-width="1.3"/>
<g id="e" fill="#e11">
<g clip-path="url(#c)" transform="translate(0 -.1)">
<rect height="6.9" ry="0" width="20.3" x="133.4" y="303.7"/>
<rect height="6.9" ry="0" width="20.3" x="153.7" y="303.7"/>
<rect height="6.9" ry="0" width="20.3" x="123.2" y="310.5"/>
<rect height="6.9" ry="0" width="20.3" x="143.5" y="310.5"/>
<rect height="6.9" ry="0" width="20.3" x="163.8" y="310.5"/>
<rect height="6.9" ry="0" width="20.3" x="133.4" y="317.4"/>
<rect height="6.9" ry="0" width="20.3" x="153.7" y="317.4"/>
<rect height="6.9" ry="0" width="20.3" x="123.2" y="324.1"/>
<rect height="6.9" ry="0" width="20.3" x="143.5" y="324.1"/>
<rect height="6.9" ry="0" width="20.3" x="163.8" y="324.1"/>
<rect height="6.9" ry="0" width="20.3" x="133.4" y="331"/>
<rect height="6.9" ry="0" width="20.3" x="153.7" y="331"/>
<rect height="6.9" ry="0" width="20.3" x="123.2" y="337.9"/>
<rect height="6.9" ry="0" width="20.3" x="143.5" y="337.9"/>
<rect height="6.9" ry="0" width="20.3" x="163.8" y="337.9"/>
<rect height="6.9" ry="0" width="20.3" x="133.4" y="344.7"/>
<rect height="6.9" ry="0" width="20.3" x="153.7" y="344.7"/>
</g>
<rect height="2.5" stroke-width="1.3" width="29.8" x="138.9" y="301.4"/>
<path d="m136.9 290.8v10.61h33.72v-10.61h-6.83v7.11h-6.47v-7.11h-7.12v7.11h-6.47v-7.11z" stroke-width="1.3"/>
<use fill="none" height="100%" stroke-width="1.3" width="100%" xlink:href="#d"/>
</g>
<path id="f" d="m153.7 311.3c2.01 0 3.39 1.5 3.39 4.99v14.72h-6.78v-14.72c0-3.49 1.38-4.99 3.39-4.99z"/>
<path d="m157.2 266.7a3.38 3.38 0 1 1 -6.76 0 3.38 3.38 0 1 1 6.76 0z" fill="#fd0" stroke-width=".9"/>
</g>
<g id="g" fill="#e11" stroke="#000" stroke-width=".6">
<rect height="11.7" ry="0" width="27.2" x="153.4" y="356.8"/>
<rect height="11.7" ry="0" width="27.2" x="180.6" y="356.8"/>
<rect height="11.7" ry="0" width="27.2" x="207.7" y="356.8"/>
<rect height="11.7" ry="0" width="27.2" x="163.9" y="368.3"/>
<rect height="11.7" ry="0" width="27.2" x="191" y="368.3"/>
<rect height="11.7" ry="0" width="27.2" x="153.4" y="380"/>
<rect height="11.7" ry="0" width="27.2" x="180.6" y="380"/>
<rect height="11.7" ry="0" width="27.2" x="207.7" y="380"/>
<rect height="11.7" ry="0" width="27.2" x="163.9" y="391.6"/>
<rect height="11.7" ry="0" width="27.2" x="191" y="391.6"/>
<use height="100%" stroke-width=".7" transform="matrix(.85 0 0 1 60.8 7.3)" width="100%" xlink:href="#e"/>
<use fill="#000" height="100%" transform="translate(37.9 7)" width="100%" xlink:href="#f"/>
<path d="m192 403.8h-16" stroke="#000"/>
</g>
<use height="100%" transform="matrix(-1 0 0 1 307.3 0)" width="100%" xlink:href="#g"/>
<path d="m153.4 361.5c4.81 0 14.44.68 14.44 9.91v32.12h-28.89v-32.12c0-9.61 9.63-9.91 14.45-9.91z"/>
<use height="100%" stroke="#000" stroke-width="1.6" width="100%" xlink:href="#h"/>
<g stroke-linecap="round">
<g stroke="#000" stroke-width=".6">
<path id="h" d="m212.8 339.7v8.75h6.96v6.5h-132.3v-6.5h6.96v-8.75h6.97v8.75h6.96v-8.75h6.96v8.75h6.96v-8.75h6.96v8.75h6.96v-8.75h6.96v8.75h6.97v-8.75h6.96v8.75h6.96v-8.75h6.96v8.75h6.96v-8.75h6.96v8.75h6.96v-8.75h6.97v8.75h6.96v-8.75z" fill="#e11"/>
</g>
<path d="m88.15 354.7v2.89h131.1v-2.89z" fill="#e11" stroke="#000"/>
<g stroke="#2f71c7" stroke-width="1.9">
<path d="m144.1 385.6v-21.59"/>
<path d="m149 385.6v-23.73"/>
<path d="m153.8 385.5v-24.81"/>
<path d="m158.6 385.6v-23.73"/>
<path d="m163.4 385.6v-21.59"/>
<path d="m142.3 382.1h22.94" stroke-width="2.5"/>
</g>
<path d="m138.8 377.6c0-8.19 6.65-15.81 14.84-15.81 8.2 0 14.85 7.62 14.85 15.81" fill="none" stroke="#000" stroke-width="2.4"/>
<path d="m168.5 377.6h3.34c0-10.03-8.16-19.16-18.19-19.16s-18.15 9.13-18.15 19.16h3.31c0-8.19 6.65-15.81 14.84-15.81 8.2 0 14.85 7.62 14.85 15.81z" fill="#e11" stroke="#000"/>
</g>
</g>
<use fill="none" height="100%" stroke="#000" stroke-width="2.5" transform="matrix(-1.589 0 0 1.589 348.1 -410.2)" width="100%" xlink:href="#b"/>
<path d="m106.5 10.68c-.22-.19-.46-.35-.72-.48.92 2.05-.18 5.77-2.28 7.08.14.01.27.03.41.03.96 0 1.91-.32 2.59-.94.69-.62 1.13-1.53 1.13-2.85s-.44-2.22-1.13-2.84z"/>
<g id="i" fill="#e11" stroke="#000" stroke-width=".6" transform="matrix(1.589 0 0 1.589 -140.2 -410.2)">
<path d="m174.8 363.2v44.66l-7.26-4.39.2-29.48c1.93-4.67 3.35-7.49 7.06-10.79z" stroke-linejoin="bevel"/>
<rect height="44.5" stroke-linecap="round" stroke-linejoin="round" transform="scale(-1 1)" width="2.5" x="-177.2" y="363.3"/>
</g>
<use height="100%" transform="matrix(-1 0 0 1 208 0)" width="100%" xlink:href="#i"/>
</svg>
